<?xml version="1.0" standalone="no"?>
<!DOCTYPE svg PUBLIC "-//W3C//DTD SVG 1.1//EN" "http://www.w3.org/Graphics/SVG/1.1/DTD/svg11.dtd" >
<svg xmlns="http://www.w3.org/2000/svg" xmlns:xlink="http://www.w3.org/1999/xlink" version="1.1">
<metadata></metadata>
<defs>
<font id="christianaregular" horiz-adv-x="1792" >
<font-face units-per-em="2048" ascent="1638" descent="-410" />
<missing-glyph horiz-adv-x="1024" />
<glyph horiz-adv-x="0" />
<glyph unicode="&#xd;" horiz-adv-x="1024" />
<glyph unicode=" "  horiz-adv-x="1024" />
<glyph unicode="&#x09;" horiz-adv-x="1024" />
<glyph unicode="&#xa0;" horiz-adv-x="1024" />
<glyph unicode="!" horiz-adv-x="768" d="M0 0v510h510v-510h-510zM0 768v1534h510v-1534h-510z" />
<glyph unicode="&#x22;" horiz-adv-x="1024" d="M0 1536v766h254v-766h-254zM512 1536v766h254v-766h-254z" />
<glyph unicode="#" horiz-adv-x="2304" d="M0 512v254l512 2v1022h254v-1024l514 2v768h-256v254h510v-1024h256v-254h-510l-2 -256h-254v256h-512l-2 -256h-254v256h-256zM768 1792v510h254v-510h-254zM1536 1792v510h254v-510h-254z" />
<glyph unicode="$" horiz-adv-x="1536" d="M0 256v254h254v-254h-254zM0 1280v766h254v-512l258 2v512h-256v254l256 2v254h254v-256h256v-254h-254l-2 -770h256v-256h256v-766h-254v512h-256l-2 -514h256v-254h-254l-2 -256h-254v256h-256v254l256 2v768h-256v256h-256zM1024 1792v254h254v-254h-254z" />
<glyph unicode="%" horiz-adv-x="2560" d="M0 1536v510h254v-510h-254zM256 1280v254h510v-254h-254h-256zM256 2048v254h510v-254h-510zM512 0v510h254v-510h-254zM768 512v510h254v-510h-254zM768 1536v510h254v-510h-254zM1024 1024v512h256v254h254v-510h-254l-2 -256h-254zM1024 2048v254h766v-510h-254v256 h-512zM1280 256v510h254v-510h-254zM1536 0v254h510v-254h-510zM1536 768v254h510v-254h-254h-256zM2048 256v510h254v-510h-254z" />
<glyph unicode="&#x26;" horiz-adv-x="2304" d="M0 256v766l256 2v512h-256v510l256 2v254h1278v-510h-510v256h-512l-2 -514h256v-510h-254l-2 -770l514 2v766h766v-254h-254l-2 -512h-254l-2 -256h-1022v256h-256zM1792 1024v766h254v-766h-254z" />
<glyph unicode="'" horiz-adv-x="512" d="M0 1536v766h254v-766h-254z" />
<glyph unicode="(" horiz-adv-x="1024" d="M0 0v2304h256v254h510v-254h-254l-2 -2306h256v-254h-510v256h-256z" />
<glyph unicode=")" horiz-adv-x="1024" d="M0 0h256v2304h-256v254h510v-256h256v-2302h-254l-2 -256h-510v256z" />
<glyph unicode="*" horiz-adv-x="1536" d="M0 1024v254h254v-254h-254zM0 1792v254h254v-254h-254zM256 1280v510l256 2v510h254v-512h256v-510h-254l-2 -512h-254v512h-256zM1024 1024v254h254v-254h-254zM1024 1792v254h254v-254h-254z" />
<glyph unicode="+" horiz-adv-x="2048" d="M0 768v254l768 2v510h254v-512h768v-254h-766l-2 -512h-254v512h-768z" />
<glyph unicode="," horiz-adv-x="768" d="M0 0v510h510v-766h-254v256h-256zM0 -258h254v-254h-254v254z" />
<glyph unicode="-" horiz-adv-x="1536" d="M0 768v254h1278v-254h-510h-768z" />
<glyph unicode="." horiz-adv-x="768" d="M0 0v510h510v-510h-510z" />
<glyph unicode="/" horiz-adv-x="1536" d="M0 0v254h254v-254h-254zM256 256v766h254v-766h-254zM512 1024v510h254v-510h-254zM768 1536v766h254v-766h-254zM1024 2304v254h254v-254h-254z" />
<glyph unicode="0" d="M0 256v1790l256 2v254h766v-254h-510l-2 -770h512v-254h-254l-2 -256h-254l-2 -514l514 2v1024h-256v510l256 2v510h254v-256h256v-1790h-254l-2 -256h-1022v256h-256z" />
<glyph unicode="1" horiz-adv-x="768" d="M0 0v2048h256v254h254v-2302h-510z" />
<glyph unicode="2" d="M0 0v512h256v254l256 2v254l256 2v254l256 2v768h-768v254h1022v-256h256v-766h-254l-2 -256h-254l-2 -256h-254l-2 -256h-254l-2 -258h1024v-254h-1534zM0 1792v254h254v-254h-254z" />
<glyph unicode="3" d="M0 256v254h254v-254h-254zM0 2048v254h1534v-254h-254l-2 -256h-254l-2 -258h256v-256h256v-1022h-254l-2 -256h-1022v256h768v1024h-768v254l256 2v254l256 2v256h-768z" />
<glyph unicode="4" horiz-adv-x="2048" d="M0 768v510l256 2v254h254v-512l514 2v768h-256v254l256 2v254h510v-1280h256v-254h-254l-2 -768h-510v768h-1024zM512 1536v254h254v-254h-254z" />
<glyph unicode="5" d="M0 256v254h254v-254h-254zM0 1280v1022h1534v-254h-1022l-2 -514h768v-256h256v-1022h-254l-2 -256h-1022v256h768v1024h-1024z" />
<glyph unicode="6" d="M0 256v1022h510v-1024l514 2v1024h-1024v510l256 2v254l256 2v254h766v-254h-510l-2 -256h-254l-2 -258h768v-256h256v-1022h-254l-2 -256h-1022v256h-256z" />
<glyph unicode="7" horiz-adv-x="2048" d="M0 2048v254h1790v-766h-254l-2 -512h-254l-2 -1024h-510v1024h256v510l256 2v512h-1280z" />
<glyph unicode="8" d="M0 256v766h510v-768l514 2v766h510v-766h-254l-2 -256h-1022v256h-256zM0 1280v766l256 2v254h1022v-256h256v-766h-510v768h-512l-2 -768h-510zM512 1024v254h510v-254h-510z" />
<glyph unicode="9" d="M0 1024v1022l256 2v254h766v-254h-510l-2 -1026l514 2v1278h254v-256h256v-1534h-254l-2 -256h-254l-2 -256h-766v256h512v254l256 2v256h-768v256h-256z" />
<glyph unicode=":" horiz-adv-x="768" d="M0 0v510h510v-510h-510zM0 1280v510h510v-510h-510z" />
<glyph unicode=";" horiz-adv-x="768" d="M0 0v510h510v-766h-254v256h-256zM0 -258h254v-254h-254v254zM0 1280v510h510v-510h-510z" />
<glyph unicode="&#x3c;" d="M0 1024v254l256 2v254l256 2v254l256 2v254h510v-254h-254l-2 -256h-254l-2 -256h-254l-2 -258h256v-256h256v-256h256v-254h-254h-256v256h-256v256h-256v256h-256z" />
<glyph unicode="=" d="M0 512v254h1534v-254h-1534zM0 1024v254h1534v-254h-1534z" />
<glyph unicode="&#x3e;" d="M256 256v254h254v-254h-254zM256 1792v254h254v-254h-254zM512 512v254h254v-254h-254zM512 1536v254h254v-254h-254zM768 768v254h254v-254h-254zM768 1280v254h254v-254h-254zM1024 1024v254h510v-254h-510z" />
<glyph unicode="?" d="M0 1792v254h254v-254h-254zM256 2048v254h1022v-256h256v-510h-254l-2 -256h-254l-2 -512h-254h-256v510l256 2v254l256 2v512h-768zM512 0v510h510v-510h-510z" />
<glyph unicode="@" horiz-adv-x="2560" d="M0 512v1278h254v-1278h-254zM256 256v254h254v-254h-254zM256 1792v254h254v-254h-254zM512 0v254h1278v-254h-1278zM512 768v766h254v-766h-254zM512 2048v254h1278v-254h-1278zM768 512v256h512v768h-512v254h766v-1024l514 2v1022h254v-1278h-1534zM1792 1792v254h254 v-254h-254z" />
<glyph unicode="A" d="M0 0v2048h256v254h766v-254h-510l-2 -770l514 2v1022h254v-256h256v-2046h-510v1024h-512l-2 -1024h-510z" />
<glyph unicode="B" d="M0 0v2302h1278v-256h256v-766h-510v768h-512l-2 -770h512v-254h-510l-2 -770l514 2v766h510v-766h-254l-2 -256h-1278z" />
<glyph unicode="C" d="M0 256v1790l256 2v254h1022v-254h-766l-2 -1794h768v-254h-1022v256h-256zM1280 256v254h254v-254h-254zM1280 1792v254h254v-254h-254z" />
<glyph unicode="D" d="M0 0v2302h1022v-254h-510l-2 -1794l514 2v2046h254v-256h256v-1790h-254l-2 -256h-1278z" />
<glyph unicode="E" horiz-adv-x="1536" d="M0 0v2302h1278v-254h-766l-2 -770h512v-254h-510l-2 -770h768v-254h-1278z" />
<glyph unicode="F" horiz-adv-x="1536" d="M0 0v2302h1278v-254h-766l-2 -770h512v-254h-510l-2 -1024h-510z" />
<glyph unicode="G" d="M0 256v1790l256 2v254h1022v-254h-766l-2 -1794l514 2v1022h510v-1022h-254l-2 -256h-1022v256h-256zM1280 1792v254h254v-254h-254z" />
<glyph unicode="H" d="M0 0v2302h510v-1024l514 2v1022h510v-2302h-510v1024h-512l-2 -1024h-510z" />
<glyph unicode="I" horiz-adv-x="768" d="M0 0v2302h510v-2302h-510z" />
<glyph unicode="J" d="M0 256v766h510v-768l514 2v2046h510v-2046h-254l-2 -256h-1022v256h-256z" />
<glyph unicode="K" horiz-adv-x="2048" d="M0 0v2302h510v-768h256v-766h-254l-2 -768h-510zM768 512v254h254v-254h-254zM768 1536v254h254v-254h-254zM1024 256v254h254v-254h-254zM1024 1792v254h254v-254h-254zM1280 0v254h254v-254h-254zM1280 2048v254h254v-254h-254z" />
<glyph unicode="L" horiz-adv-x="1536" d="M0 0v2302h510v-2048h768v-254h-1278z" />
<glyph unicode="M" horiz-adv-x="2816" d="M0 0v2302h254v-256h256v-256h256v-256h256v-256l258 2v254l256 2v254l256 2v254l256 2v254h510v-2302h-510v1280h-256l-2 -256h-254l-2 -256h-254l-2 -256h-254v256h-256v256h-256v256h-256l-2 -1280h-254z" />
<glyph unicode="N" horiz-adv-x="2048" d="M0 0v2302h254v-256h256v-256h256v-256h256v-256h256v-256l258 2v1278h254v-2302h-254v256h-256v256h-256v256h-256v256h-256v256h-256l-2 -1280h-254z" />
<glyph unicode="O" d="M0 256v1790l256 2v254h766v-254h-510l-2 -1794l514 2v2046h254v-256h256v-1790h-254l-2 -256h-1022v256h-256z" />
<glyph unicode="P" d="M0 0v2302h1022v-254h-510l-2 -770l514 2v1022h254v-256h256v-766h-254l-2 -256h-766l-2 -1024h-510z" />
<glyph unicode="Q" d="M0 256v1790h510v-1792l514 2v1792h-768v254h1022v-256h256v-1790h-254l-2 -258h256v-254h-510v256h-768v256h-256z" />
<glyph unicode="R" d="M0 0v2302h1022v-254h-510l-2 -770l514 2v1022h254v-256h256v-766h-254l-2 -258h256v-1022h-510v1024h-512l-2 -1024h-510z" />
<glyph unicode="S" horiz-adv-x="1536" d="M0 256v254h254v-254h-254zM0 1280v766l256 2v254h766v-254h-510l-2 -514h256v-256h256v-256h256v-766h-254l-2 -256h-766v256h512v512h-256v256h-256v256h-256zM1024 1792v254h254v-254h-254z" />
<glyph unicode="T" horiz-adv-x="2304" d="M0 2048v254h2046v-254h-766l-2 -2048h-510v2048h-768z" />
<glyph unicode="U" d="M0 256v2046h510v-2048l514 2v2046h510v-2046h-254l-2 -256h-1022v256h-256z" />
<glyph unicode="V" d="M0 0v2302h510v-2048h512v-254h-1022zM1024 256v2046h510v-1790h-254l-2 -256h-254z" />
<glyph unicode="W" horiz-adv-x="2816" d="M0 0v2302h510v-2048l514 2v2046h510v-2048h512v-254h-2046zM2048 256v2046h510v-1790h-254l-2 -256h-254z" />
<glyph unicode="X" d="M0 0v1022h510v-1022h-510zM0 1280v1022h510v-1022h-254h-256zM512 1024v254h510v-254h-510zM1024 0v1022h510v-1022h-510zM1024 1280v1022h510v-1022h-510z" />
<glyph unicode="Y" d="M0 1280v1022h510v-1024l514 2v1022h510v-1022h-254l-2 -256h-254l-2 -1024h-510v1024h-256v256h-256z" />
<glyph unicode="Z" d="M0 0v512h256v510l256 2v510l256 2v512h-768v254h1534v-510h-254l-2 -512h-254l-2 -256h-254l-2 -512h-254l-2 -258h1024v-254h-1534z" />
<glyph unicode="[" horiz-adv-x="768" d="M0 0v2558h510v-2814h-510v256z" />
<glyph unicode="\" horiz-adv-x="1536" d="M0 2304v254h254v-254h-254zM256 1536v766h254v-766h-254zM512 1024v510h254v-510h-254zM768 256v766h254v-766h-254zM1024 0v254h254v-254h-254z" />
<glyph unicode="]" horiz-adv-x="768" d="M0 0v2558h510v-2814h-510v256z" />
<glyph unicode="^" d="M0 1536v256h256v254l256 2v254h510v-256h256v-256h256v-254h-510v256h-512l-2 -256h-510z" />
<glyph unicode="_" horiz-adv-x="2304" d="M0 -2h2046v-254h-2046v254z" />
<glyph unicode="`" horiz-adv-x="768" d="M0 2304v254h254v-254h-254zM256 2048v254h254v-254h-254z" />
<glyph unicode="a" d="M0 256v510h510v-512l514 2v512h-768v254l768 2v512h-768v254h1022v-256h256v-1534h-1278v256h-256zM0 1280v254h254v-254h-254z" />
<glyph unicode="b" d="M0 0v2302h510v-512h512v-254h-510l-2 -1282l514 2v1534h254v-256h256v-1278h-254l-2 -256h-1278z" />
<glyph unicode="c" horiz-adv-x="1536" d="M0 256v1278l256 2v254h766v-254h-510l-2 -1282h512v-254h-766v256h-256zM1024 256v254h254v-254h-254zM1024 1280v254h254v-254h-254z" />
<glyph unicode="d" d="M0 256v1278l256 2v254h766v-254h-510l-2 -1282l514 2v2046h510v-2302h-1278v256h-256z" />
<glyph unicode="e" d="M0 256v1278l256 2v254h766v-254h-510l-2 -514l514 2v766h254v-256h256v-766h-1022l-2 -514h768v-254h-1022v256h-256zM1280 256v254h254v-254h-254z" />
<glyph unicode="f" horiz-adv-x="1536" d="M0 1536v254l256 2v254l256 2v254h766v-254h-510l-2 -258h256v-254h-254l-2 -1536h-510v1536h-256z" />
<glyph unicode="g" d="M0 256v1278h510v-1280l514 2v1280h-768v254h1278v-2302h-254l-2 -256h-1022v256h768v512h-768v256h-256zM0 -258h254v-254h-254v254z" />
<glyph unicode="h" d="M0 0v2302h510v-512h768v-256h256v-1534h-510v1536h-512l-2 -1536h-510z" />
<glyph unicode="i" horiz-adv-x="768" d="M0 0v1790h510v-1790h-510zM0 2048v254h510v-254h-510z" />
<glyph unicode="j" horiz-adv-x="1536" d="M0 -2h254v-254h-254v254zM256 -256h512v2046h510v-2046h-254l-2 -256h-766v256zM768 2048v254h510v-254h-510z" />
<glyph unicode="k" horiz-adv-x="2048" d="M0 0v2302h510v-1024l258 2v254l256 2v254h510v-254h-254l-2 -256h-254l-2 -256h-510l-2 -258h512v-256h256v-256h256v-254h-510v256h-256v256h-256l-2 -512h-510z" />
<glyph unicode="l" horiz-adv-x="768" d="M0 0v2302h510v-2302h-510z" />
<glyph unicode="m" horiz-adv-x="2816" d="M0 0v1790h1278v-256h256v-1534h-510v1536h-512l-2 -1536h-510zM1536 1536v254h766v-256h256v-1534h-510v1536h-512z" />
<glyph unicode="n" d="M0 0v1790h1278v-256h256v-1534h-510v1536h-512l-2 -1536h-510z" />
<glyph unicode="o" d="M0 256v1278l256 2v254h766v-254h-510l-2 -1282l514 2v1534h254v-256h256v-1278h-254l-2 -256h-1022v256h-256z" />
<glyph unicode="p" d="M0 0v1790h1022v-254h-510l-2 -1282l514 2v1534h254v-256h256v-1278h-254l-2 -256h-766l-2 -512h-510v512z" />
<glyph unicode="q" d="M0 256v1278l256 2v254h766v-254h-510l-2 -1282l514 2v1534h510v-2302h-510v512h-768v256h-256z" />
<glyph unicode="r" horiz-adv-x="1536" d="M0 0v1790h510v-256l258 2v254h510v-510h-766l-2 -1280h-510z" />
<glyph unicode="s" horiz-adv-x="1536" d="M0 256v254h254v-254h-254zM0 1024v510l256 2v254h766v-254h-510l-2 -258h256v-256h256v-256h256v-510h-254l-2 -256h-766v256h512v256h-256v256h-256v256h-256zM1024 1280v254h254v-254h-254z" />
<glyph unicode="t" horiz-adv-x="1280" d="M0 1536v254l256 2v510h510v-512h256v-254h-254l-2 -1282h256v-254h-510v256h-256v1280h-256z" />
<glyph unicode="u" d="M0 256v1534h510v-1536l514 2v1534h510v-1790h-1278v256h-256z" />
<glyph unicode="v" d="M0 0v1790h510v-1536h512v-254h-1022zM1024 256v1534h510v-1278h-254l-2 -256h-254z" />
<glyph unicode="w" horiz-adv-x="2816" d="M0 0v1790h510v-1536l514 2v1534h510v-1536h512v-254h-2046zM2048 256v1534h510v-1278h-254l-2 -256h-254z" />
<glyph unicode="x" d="M0 0v766h510v-766h-510zM0 1024v766h510v-766h-510zM512 768v254h510v-254h-254h-256zM1024 0v766h510v-766h-510zM1024 1024v766h510v-766h-510z" />
<glyph unicode="y" d="M0 256v1534h510v-1536l514 2v1534h510v-2302h-254l-2 -256h-1022v256h768v512h-768v256h-256zM0 -258h254v-254h-254v254z" />
<glyph unicode="z" d="M0 0v512h256v254h254v-512h1024v-254h-1534zM0 1536v254h1534v-254h-254l-2 -256h-254v256h-1024zM512 768v254h254v-254h-254zM768 1024v254h254v-254h-254z" />
<glyph unicode="{" horiz-adv-x="1024" d="M0 1024v254h254v-254h-254zM256 0v1022h254v-1022h-254zM256 1280v1022h254v-1022h-254zM512 -2h254v-254h-254v254zM512 2304v254h254v-254h-254z" />
<glyph unicode="|" horiz-adv-x="512" d="M0 0v2558h254v-2814h-254v256z" />
<glyph unicode="}" horiz-adv-x="1024" d="M0 -2h254v-254h-254v254zM0 2304v254h254v-254h-254zM256 0v1022h254v-1022h-254zM256 1280v1022h254v-1022h-254zM512 1024v254h254v-254h-254z" />
<glyph unicode="~" d="M0 1280v254h254v-254h-254zM256 1536v254h510v-254h-510zM768 1280v254h510v-254h-254h-256zM1280 1536v254h254v-254h-254z" />
<glyph horiz-adv-x="1536" d="M0 0v3070h1022v-254h-766l-2 -2562l770 2v2814h254v-3070h-1278z" />
<glyph horiz-adv-x="1536" d="M0 0v3070h1022v-254h-766l-2 -2562l770 2v2814h254v-3070h-1278z" />
<glyph horiz-adv-x="1536" d="M0 0v3070h1022v-254h-766l-2 -2562l770 2v2814h254v-3070h-1278z" />
<glyph horiz-adv-x="1536" d="M0 0v3070h1022v-254h-766l-2 -2562l770 2v2814h254v-3070h-1278z" />
<glyph d="M0 0v512h256v510l256 2v510l256 2v512h-768v254h1534v-510h-254l-2 -512h-254l-2 -256h-254l-2 -512h-254l-2 -258h1024v-254h-1534zM256 2816v254h1022v-254h-254l-2 -256h-510v256h-256z" />
<glyph horiz-adv-x="1536" d="M0 0v3070h1022v-254h-766l-2 -2562l770 2v2814h254v-3070h-1278z" />
<glyph horiz-adv-x="1536" d="M0 0v3070h1022v-254h-766l-2 -2562l770 2v2814h254v-3070h-1278z" />
<glyph horiz-adv-x="1536" d="M0 0v3070h1022v-254h-766l-2 -2562l770 2v2814h254v-3070h-1278z" />
<glyph d="M0 0v512h256v254h254v-512h1024v-254h-1534zM0 1536v254h1534v-254h-254l-2 -256h-254v256h-1024zM256 2304v254h1022v-254h-254l-2 -256h-510v256h-256zM512 768v254h254v-254h-254zM768 1024v254h254v-254h-254z" />
<glyph unicode="&#xa1;" horiz-adv-x="768" d="M0 0v1534h510v-1534h-510zM0 1792v510h510v-510h-510z" />
<glyph unicode="&#xa2;" horiz-adv-x="1280" d="M0 1024v1022h254v-1022h-254zM256 768v254l256 2v1024h-256v254l256 2v254h254v-256h256v-510h-254l-2 -514h256v-510h-254l-2 -256h-254v256h-256z" />
<glyph unicode="&#xa3;" horiz-adv-x="2048" d="M0 0v256h256v768h-256v254l256 2v766l256 2v254h766v-254h-510l-2 -770h256v-254h-254l-2 -770h768v-254h-1534zM1280 1792v254h254v-254h-254zM1536 256v254h254v-254h-254z" />
<glyph unicode="&#xa4;" d="M0 512v254h254v-254h-254zM0 1792v254h254v-254h-254zM256 768v1022h766v-254h-510l-2 -514l514 2v766h254v-1022h-254h-768zM1280 512v254h254v-254h-254zM1280 1792v254h254v-254h-254z" />
<glyph unicode="&#xa5;" d="M0 512v254l512 2v256h-512v254l256 2v256h-256v766h510v-768l514 2v766h510v-766h-254l-2 -258h256v-254h-510l-2 -258h512v-254h-510l-2 -512h-510v512h-512z" />
<glyph unicode="&#xa6;" horiz-adv-x="512" d="M0 0v1022h254v-1278h-254v256zM0 1280v1278h254v-1278h-254z" />
<glyph unicode="&#xa7;" horiz-adv-x="1536" d="M0 -258h254v-254h-254v254zM0 768v510h254v-510h-254zM0 1536v510h254v-510h-254zM256 512v254h254v-254h-254zM256 -514h766v-254h-766v254zM256 1280v254h254v-254h-254zM256 2048v254h766v-254h-254h-512zM512 256v254h254v-254h-254zM512 1024v254h254v-254h-254z M768 0v254h254v-254h-254zM768 768v254h254v-254h-254zM1024 -2h254v-510h-254v510zM1024 256v510h254v-510h-254zM1024 1792v254h254v-254h-254z" />
<glyph unicode="&#xa8;" horiz-adv-x="1280" d="M0 2048v254h254v-254h-254zM768 2048v254h254v-254h-254z" />
<glyph unicode="&#xa9;" horiz-adv-x="2304" d="M0 256v1790l256 2v254h1534v-510h-254v256h-1024l-2 -256h-254l-2 -1282h256v-256l1026 2v254l256 2v1534h254v-1790h-254l-2 -256h-1534v256h-256zM512 768v766h254v-766h-254zM768 512v254h510v-254h-510zM768 1536v254h510v-254h-510zM1280 768v254h254v-254h-254z M1280 1280v254h254v-254h-254z" />
<glyph unicode="&#xaa;" horiz-adv-x="1536" d="M0 256v254h1278v-254h-510h-768zM0 1024v510l256 2v254h510v-254h-254l-2 -514l258 2v1024h-512v254h766v-256h256v-1278h-510h-512v256h-256zM0 1792v254h254v-254h-254z" />
<glyph unicode="&#xab;" horiz-adv-x="2048" d="M0 768v254h254v-254h-254zM256 512v254h254v-254h-254zM256 1024v254h254v-254h-254zM512 256v254h254v-254h-254zM512 1280v254h254v-254h-254zM768 0v254h254v-254h-254zM768 768v254h254v-254h-254zM768 1536v254h254v-254h-254zM1024 512v254h254v-254h-254z M1024 1024v254h254v-254h-254zM1280 256v254h254v-254h-254zM1280 1280v254h254v-254h-254zM1536 0v254h254v-254h-254zM1536 1536v254h254v-254h-254z" />
<glyph unicode="&#xac;" horiz-adv-x="1536" d="M0 768v254h1278v-766h-254v512h-1024z" />
<glyph unicode="&#xad;" d="M0 768v254h1534v-254h-510h-1024z" />
<glyph unicode="&#xae;" horiz-adv-x="2304" d="M0 256v1790l256 2v254h1534v-510h-254v256h-1024l-2 -256h-254l-2 -1282h256v-256l1026 2v254l256 2v1534h254v-1790h-254l-2 -256h-1534v256h-256zM512 512v1278h1022v-510h-254v256h-512l-2 -258h512v-254h-510l-2 -512h-254zM1280 512v510h254v-510h-254z" />
<glyph unicode="&#xaf;" horiz-adv-x="1280" d="M0 2048v254h1022v-254h-1022z" />
<glyph unicode="&#xb0;" horiz-adv-x="1280" d="M0 1536v510h254v-510h-254zM256 1280v254h510v-254h-254h-256zM256 2048v254h510v-254h-510zM768 1536v510h254v-510h-254z" />
<glyph unicode="&#xb1;" horiz-adv-x="2048" d="M0 0v254h1790v-254h-1790zM0 1024v254l768 2v510h254v-512h768v-254h-766l-2 -512h-254v512h-768z" />
<glyph unicode="&#xb2;" horiz-adv-x="1536" d="M0 512v512h256v254l256 2v254l256 2v512h-512v254h766v-256h256v-510h-254l-2 -256h-254l-2 -256h-254l-2 -258h768v-254h-1278zM0 1792v254h254v-254h-254z" />
<glyph unicode="&#xb3;" horiz-adv-x="1536" d="M0 512v510h254v-256l514 2v512h-512v254l256 2v254h254v-256h512v-766h-254l-2 -256h-1022zM0 2048v254h1278v-510h-510v256h-768z" />
<glyph unicode="&#xb4;" horiz-adv-x="768" d="M0 2048v254h254v-254h-254zM256 2304v254h254v-254h-254z" />
<glyph unicode="&#xb5;" horiz-adv-x="2304" d="M0 0v256h256v1278l256 2v254h510v-510h-254l-2 -1026h512v-254h-766l-2 -512h-510v512zM1280 256v1278l256 2v254h510v-254h-254l-2 -1282h256v-254h-510v256h-256z" />
<glyph unicode="&#xb6;" horiz-adv-x="2304" d="M0 1280v766l256 2v254h1022v-254h-766l-2 -770l770 2v1022h766v-2302h-254v2048h-256l-2 -2048h-254v1024h-1024v256h-256z" />
<glyph unicode="&#xb7;" horiz-adv-x="768" d="M0 768v510h510v-510h-510z" />
<glyph unicode="&#xb8;" horiz-adv-x="768" d="M0 -2h510v-766h-510v254l256 2v256h-256v254z" />
<glyph unicode="&#xb9;" horiz-adv-x="768" d="M0 512v1536h256v254h254v-1790h-510z" />
<glyph unicode="&#xba;" horiz-adv-x="1536" d="M0 256v254h1278v-254h-510h-768zM0 1024v1022l256 2v254h510v-254h-254l-2 -1026l258 2v1278h254v-256h256v-1022h-254l-2 -256h-254h-512v256h-256z" />
<glyph unicode="&#xbb;" horiz-adv-x="2048" d="M0 0v512h256v254l256 2v256h-256v256h-256v510h254v-256h256v-256h256v-256h256v-254h-254l-2 -256h-254l-2 -256h-254l-2 -256h-254zM768 0v512h256v254l256 2v256h-256v256h-256v510h254v-256h256v-256h256v-256h256v-254h-254l-2 -256h-254l-2 -256h-254l-2 -256h-254 z" />
<glyph unicode="&#xbc;" horiz-adv-x="3072" d="M0 512v1536h256v254h254v-1790h-510zM512 0v512h256v766l256 2v766l256 2v254h254v-510h-254l-2 -768h-254l-2 -768h-254l-2 -256h-254zM1280 512v510l256 2v254h254v-512l258 2v512h-256v510h766v-1024h256v-254h-254l-2 -512h-510v512h-768z" />
<glyph unicode="&#xbd;" horiz-adv-x="3072" d="M0 512v1536h256v254h254v-1790h-510zM512 0v512h256v766l256 2v766l256 2v254h254v-510h-254l-2 -768h-254l-2 -768h-254l-2 -256h-254zM1536 0v512h256v254l256 2v254l256 2v512h-512v254h766v-256h256v-510h-254l-2 -256h-254l-2 -256h-254l-2 -258h768v-254h-1278z M1536 1280v254h254v-254h-254z" />
<glyph unicode="&#xbe;" horiz-adv-x="3840" d="M0 512v510h254v-256l514 2v512h-512v254l256 2v254h254v-256h512v-766h-254l-2 -256h-1022zM0 2048v254h1278v-510h-254h-256v256h-768zM1280 0v512h256v766l256 2v766l256 2v254h254v-510h-254l-2 -768h-254l-2 -768h-254l-2 -256h-254zM2048 512v510l256 2v254h254 v-512l258 2v512h-256v510h766v-1024h256v-254h-254l-2 -512h-510v512h-768z" />
<glyph unicode="&#xbf;" d="M0 256v510l256 2v254l256 2v510h510v-510h-254l-2 -256h-254l-2 -514h768v-254h-1022v256h-256zM512 1792v510h510v-510h-254h-256zM1280 256v254h254v-254h-254z" />
<glyph unicode="&#xc0;" d="M0 0v2048h256v254h766v-254h-510l-2 -770l514 2v1022h254v-256h256v-2046h-510v1024h-512l-2 -1024h-510zM512 2816v254h254v-254h-254zM768 2560v254h254v-254h-254z" />
<glyph unicode="&#xc1;" d="M0 0v2048h256v254h766v-254h-510l-2 -770l514 2v1022h254v-256h256v-2046h-510v1024h-512l-2 -1024h-510zM512 2560v254h254v-254h-254zM768 2816v254h254v-254h-254z" />
<glyph unicode="&#xc2;" d="M0 0v2048h256v254h766v-254h-510l-2 -770l514 2v1022h254v-256h256v-2046h-510v1024h-512l-2 -1024h-510zM256 2560v256h256v254h510v-256h256v-254h-1022z" />
<glyph unicode="&#xc3;" d="M0 0v2048h256v254h766v-254h-510l-2 -770l514 2v1022h254v-256h256v-2046h-510v1024h-512l-2 -1024h-510zM0 2560v254h254v-254h-254zM256 2816v254h510v-254h-254h-256zM768 2560v254h510v-254h-510zM1280 2816v254h254v-254h-254z" />
<glyph unicode="&#xc4;" d="M0 0v2048h256v254h766v-254h-510l-2 -770l514 2v1022h254v-256h256v-2046h-510v1024h-512l-2 -1024h-510zM256 2560v254h254v-254h-254zM1024 2560v254h254v-254h-254z" />
<glyph unicode="&#xc5;" d="M0 0v2048h256v766h254v-512h512v-254h-510l-2 -770l514 2v1534h254v-768h256v-2046h-510v1024h-512l-2 -1024h-510zM512 2816v254h510v-254h-254h-256z" />
<glyph unicode="&#xc6;" horiz-adv-x="2560" d="M0 0v2048h256v254h766v-254h-510l-2 -770l514 2v1022h1278v-254h-766l-2 -770h512v-254h-510l-2 -770h768v-254h-1278v1024h-512l-2 -1024h-510z" />
<glyph unicode="&#xc7;" d="M0 256v1790l256 2v254h1022v-254h-766l-2 -1794h768v-1022h-510v256h256v256h-512v256h-256v256h-256zM1280 256v254h254v-254h-254zM1280 1792v254h254v-254h-254z" />
<glyph unicode="&#xc8;" horiz-adv-x="1536" d="M0 0v2302h1278v-254h-766l-2 -770h512v-254h-510l-2 -770h768v-254h-1278zM256 2816v254h254v-254h-254zM512 2560v254h254v-254h-254z" />
<glyph unicode="&#xc9;" horiz-adv-x="1536" d="M0 0v2302h1278v-254h-766l-2 -770h512v-254h-510l-2 -770h768v-254h-1278zM512 2560v254h254v-254h-254zM768 2816v254h254v-254h-254z" />
<glyph unicode="&#xca;" horiz-adv-x="1536" d="M0 0v2302h1278v-254h-766l-2 -770h512v-254h-510l-2 -770h768v-254h-1278zM0 2560v256h256v254h510v-256h256v-254h-1022z" />
<glyph unicode="&#xcb;" horiz-adv-x="1536" d="M0 0v2302h1278v-254h-766l-2 -770h512v-254h-510l-2 -770h768v-254h-1278zM0 2560v254h254v-254h-254zM768 2560v254h254v-254h-254z" />
<glyph unicode="&#xcc;" horiz-adv-x="768" d="M0 0v2302h510v-2302h-510zM0 2816v254h254v-254h-254zM256 2560v254h254v-254h-254z" />
<glyph unicode="&#xcd;" horiz-adv-x="768" d="M0 0v2302h510v-2302h-510zM0 2560v254h254v-254h-254zM256 2816v254h254v-254h-254z" />
<glyph unicode="&#xce;" horiz-adv-x="1280" d="M0 2560v256h256v254h510v-256h256v-254h-1022zM256 0v2302h510v-2302h-510z" />
<glyph unicode="&#xcf;" horiz-adv-x="1280" d="M0 2560v254h254v-254h-254zM256 0v2302h510v-2302h-510zM768 2560v254h254v-254h-254z" />
<glyph unicode="&#xd0;" horiz-adv-x="2048" d="M0 1024v254l256 2v1022h1022v-254h-510l-2 -770h256v-254h-254l-2 -770l514 2v2046h254v-256h256v-1790h-254l-2 -256h-1278v1024h-256z" />
<glyph unicode="&#xd1;" horiz-adv-x="2048" d="M0 0v2302h254v-256h256v-256h256v-256h256v-256h256v-256l258 2v1278h254v-2302h-254v256h-256v256h-256v256h-256v256h-256v256h-256l-2 -1280h-254zM256 2560v254h254v-254h-254zM512 2816v254h510v-254h-254h-256zM1024 2560v254h510v-254h-510zM1536 2816v254h254 v-254h-254z" />
<glyph unicode="&#xd2;" d="M0 256v1790l256 2v254h766v-254h-510l-2 -1794l514 2v2046h254v-256h256v-1790h-254l-2 -256h-1022v256h-256zM512 2816v254h254v-254h-254zM768 2560v254h254v-254h-254z" />
<glyph unicode="&#xd3;" d="M0 256v1790l256 2v254h766v-254h-510l-2 -1794l514 2v2046h254v-256h256v-1790h-254l-2 -256h-1022v256h-256zM512 2560v254h254v-254h-254zM768 2816v254h254v-254h-254z" />
<glyph unicode="&#xd4;" d="M0 256v1790l256 2v254h766v-254h-510l-2 -1794l514 2v2046h254v-256h256v-1790h-254l-2 -256h-1022v256h-256zM256 2560v256h256v254h510v-256h256v-254h-1022z" />
<glyph unicode="&#xd5;" d="M0 256v1790l256 2v254h766v-254h-510l-2 -1794l514 2v2046h254v-256h256v-1790h-254l-2 -256h-1022v256h-256zM0 2560v254h254v-254h-254zM256 2816v254h510v-254h-254h-256zM768 2560v254h510v-254h-510zM1280 2816v254h254v-254h-254z" />
<glyph unicode="&#xd6;" d="M0 256v1790l256 2v254h766v-254h-510l-2 -1794l514 2v2046h254v-256h256v-1790h-254l-2 -256h-1022v256h-256zM256 2560v254h254v-254h-254zM1024 2560v254h254v-254h-254z" />
<glyph unicode="&#xd7;" d="M0 256v254l256 2v254l256 2v256h-256v256h-256v510h254v-256h256v-256h512v-510h-254l-2 -256h-254l-2 -256h-254h-256zM1024 512v254h254v-254h-254zM1024 1280v254h254v-254h-254zM1280 256v254h254v-254h-254zM1280 1536v254h254v-254h-254z" />
<glyph unicode="&#xd8;" d="M0 0v2048h256v254h766v-254h-510l-2 -770h512v-254h-254l-2 -256h-254l-2 -514l514 2v1024h-256v510l256 2v510h510v-2046h-254l-2 -256h-1278z" />
<glyph unicode="&#xd9;" d="M0 256v2046h510v-2048l514 2v2046h510v-2046h-254l-2 -256h-1022v256h-256zM512 2816v254h254v-254h-254zM768 2560v254h254v-254h-254z" />
<glyph unicode="&#xda;" d="M0 256v2046h510v-2048l514 2v2046h510v-2046h-254l-2 -256h-1022v256h-256zM512 2560v254h254v-254h-254zM768 2816v254h254v-254h-254z" />
<glyph unicode="&#xdb;" d="M0 256v2046h510v-2048l514 2v2046h510v-2046h-254l-2 -256h-1022v256h-256zM256 2560v256h256v254h510v-256h256v-254h-1022z" />
<glyph unicode="&#xdc;" d="M0 256v2046h510v-2048l514 2v2046h510v-2046h-254l-2 -256h-1022v256h-256zM256 2560v254h254v-254h-254zM1024 2560v254h254v-254h-254z" />
<glyph unicode="&#xdd;" d="M0 1280v1022h510v-1024l514 2v1022h510v-1022h-254l-2 -256h-254l-2 -1024h-510v1024h-256v256h-256zM512 2560v254h254v-254h-254zM768 2816v254h254v-254h-254z" />
<glyph unicode="&#xde;" d="M0 0v2302h510v-512h512v-254h-510l-2 -770l514 2v1022h254v-256h256v-766h-254l-2 -256h-766l-2 -512h-510z" />
<glyph unicode="&#xdf;" d="M0 0v2048h256v254h1022v-256h256v-510h-254l-2 -514h256v-766h-254l-2 -256h-510v254l256 2v768h-256v510l256 2v512h-512l-2 -2048h-510z" />
<glyph unicode="&#xe0;" d="M0 256v510h510v-512l514 2v512h-768v254l768 2v512h-768v254h1022v-256h256v-1534h-1278v256h-256zM0 1280v254h254v-254h-254zM512 2304v254h254v-254h-254zM768 2048v254h254v-254h-254z" />
<glyph unicode="&#xe1;" d="M0 256v510h510v-512l514 2v512h-768v254l768 2v512h-768v254h1022v-256h256v-1534h-1278v256h-256zM0 1280v254h254v-254h-254zM512 2048v254h254v-254h-254zM768 2304v254h254v-254h-254z" />
<glyph unicode="&#xe2;" d="M0 256v510h510v-512l514 2v512h-768v254l768 2v512h-768v254h1022v-256h256v-1534h-1278v256h-256zM0 1280v254h254v-254h-254zM256 2048v256h256v254h510v-256h256v-254h-1022z" />
<glyph unicode="&#xe3;" d="M0 256v510h510v-512l514 2v512h-768v254l768 2v512h-768v254h1022v-256h256v-1534h-1278v256h-256zM0 1280v254h254v-254h-254zM0 2048v254h254v-254h-254zM256 2304v254h510v-254h-254h-256zM768 2048v254h510v-254h-510zM1280 2304v254h254v-254h-254z" />
<glyph unicode="&#xe4;" d="M0 256v510h510v-512l514 2v512h-768v254l768 2v512h-768v254h1022v-256h256v-1534h-1278v256h-256zM0 1280v254h254v-254h-254zM256 2048v254h254v-254h-254zM1024 2048v254h254v-254h-254z" />
<glyph unicode="&#xe5;" d="M0 256v510h510v-512l514 2v512h-768v254l768 2v512h-768v254h1022v-256h256v-1534h-1278v256h-256zM0 1280v254h254v-254h-254zM256 2304v510h254v-510h-254zM512 2048v254h510v-254h-510zM512 2816v254h510v-254h-254h-256zM1024 2304v510h254v-510h-254z" />
<glyph unicode="&#xe6;" horiz-adv-x="2816" d="M0 256v510h510v-512l514 2v512h-768v254l768 2v512h-768v254h1790v-254h-510l-2 -514l514 2v766h254v-256h256v-766h-1022l-2 -514h768v-254h-2046v256h-256zM0 1280v254h254v-254h-254zM2304 256v254h254v-254h-254z" />
<glyph unicode="&#xe7;" horiz-adv-x="1536" d="M0 256v1278l256 2v254h766v-254h-510l-2 -1282h512v-1022h-510v256h256v256h-256v256h-256v256h-256zM1024 256v254h254v-254h-254zM1024 1280v254h254v-254h-254z" />
<glyph unicode="&#xe8;" d="M0 256v1278l256 2v254h766v-254h-510l-2 -514l514 2v766h254v-256h256v-766h-1022l-2 -514h768v-254h-1022v256h-256zM512 2304v254h254v-254h-254zM768 2048v254h254v-254h-254zM1280 256v254h254v-254h-254z" />
<glyph unicode="&#xe9;" d="M0 256v1278l256 2v254h766v-254h-510l-2 -514l514 2v766h254v-256h256v-766h-1022l-2 -514h768v-254h-1022v256h-256zM512 2048v254h254v-254h-254zM768 2304v254h254v-254h-254zM1280 256v254h254v-254h-254z" />
<glyph unicode="&#xea;" d="M0 256v1278l256 2v254h766v-254h-510l-2 -514l514 2v766h254v-256h256v-766h-1022l-2 -514h768v-254h-1022v256h-256zM256 2048v256h256v254h510v-256h256v-254h-1022zM1280 256v254h254v-254h-254z" />
<glyph unicode="&#xeb;" d="M0 256v1278l256 2v254h766v-254h-510l-2 -514l514 2v766h254v-256h256v-766h-1022l-2 -514h768v-254h-1022v256h-256zM256 2048v254h254v-254h-254zM1024 2048v254h254v-254h-254zM1280 256v254h254v-254h-254z" />
<glyph unicode="&#xec;" horiz-adv-x="768" d="M0 0v1790h510v-1790h-510zM0 2304v254h254v-254h-254zM256 2048v254h254v-254h-254z" />
<glyph unicode="&#xed;" horiz-adv-x="768" d="M0 0v1790h510v-1790h-510zM0 2048v254h254v-254h-254zM256 2304v254h254v-254h-254z" />
<glyph unicode="&#xee;" horiz-adv-x="1280" d="M0 2048v256h256v254h510v-256h256v-254h-1022zM256 0v1790h510v-1790h-510z" />
<glyph unicode="&#xef;" horiz-adv-x="1280" d="M0 2048v254h254v-254h-254zM256 0v1790h510v-1790h-510zM768 2048v254h254v-254h-254z" />
<glyph unicode="&#xf0;" d="M0 256v1022h510v-1024l514 2v1024h-768v254l768 2v256h-512v256h-256v254h1022v-512h256v-1534h-254l-2 -256h-1022v256h-256z" />
<glyph unicode="&#xf1;" d="M0 0v1790h1278v-256h256v-1534h-510v1536h-512l-2 -1536h-510zM0 2048v254h254v-254h-254zM256 2304v254h510v-254h-254h-256zM768 2048v254h510v-254h-510zM1280 2304v254h254v-254h-254z" />
<glyph unicode="&#xf2;" d="M0 256v1278l256 2v254h766v-254h-510l-2 -1282l514 2v1534h254v-256h256v-1278h-254l-2 -256h-1022v256h-256zM512 2304v254h254v-254h-254zM768 2048v254h254v-254h-254z" />
<glyph unicode="&#xf3;" d="M0 256v1278l256 2v254h766v-254h-510l-2 -1282l514 2v1534h254v-256h256v-1278h-254l-2 -256h-1022v256h-256zM512 2048v254h254v-254h-254zM768 2304v254h254v-254h-254z" />
<glyph unicode="&#xf4;" d="M0 256v1278l256 2v254h766v-254h-510l-2 -1282l514 2v1534h254v-256h256v-1278h-254l-2 -256h-1022v256h-256zM256 2048v256h256v254h510v-256h256v-254h-1022z" />
<glyph unicode="&#xf5;" d="M0 256v1278l256 2v254h766v-254h-510l-2 -1282l514 2v1534h254v-256h256v-1278h-254l-2 -256h-1022v256h-256zM0 2048v254h254v-254h-254zM256 2304v254h510v-254h-254h-256zM768 2048v254h510v-254h-510zM1280 2304v254h254v-254h-254z" />
<glyph unicode="&#xf6;" d="M0 256v1278l256 2v254h766v-254h-510l-2 -1282l514 2v1534h254v-256h256v-1278h-254l-2 -256h-1022v256h-256zM256 2048v254h254v-254h-254zM1024 2048v254h254v-254h-254z" />
<glyph unicode="&#xf7;" horiz-adv-x="2048" d="M0 768v254h1790v-254h-510h-1280zM768 256v254h254v-254h-254zM768 1280v254h254v-254h-254z" />
<glyph unicode="&#xf8;" d="M0 0v1536h256v254h766v-254h-510l-2 -514h256v-510h-254l-2 -258l514 2v768h-256v254l256 2v510h510v-1534h-254l-2 -256h-1278z" />
<glyph unicode="&#xf9;" d="M0 256v1534h510v-1536l514 2v1534h510v-1790h-1278v256h-256zM512 2304v254h254v-254h-254zM768 2048v254h254v-254h-254z" />
<glyph unicode="&#xfa;" d="M0 256v1534h510v-1536l514 2v1534h510v-1790h-1278v256h-256zM512 2048v254h254v-254h-254zM768 2304v254h254v-254h-254z" />
<glyph unicode="&#xfb;" d="M0 256v1534h510v-1536l514 2v1534h510v-1790h-1278v256h-256zM256 2048v256h256v254h510v-256h256v-254h-1022z" />
<glyph unicode="&#xfc;" d="M0 256v1534h510v-1536l514 2v1534h510v-1790h-1278v256h-256zM256 2048v254h254v-254h-254zM1024 2048v254h254v-254h-254z" />
<glyph unicode="&#xfd;" d="M0 256v1534h510v-1536l514 2v1534h510v-2302h-254l-2 -256h-1022v256h768v512h-768v256h-256zM0 -258h254v-254h-254v254zM512 2048v254h254v-254h-254zM768 2304v254h254v-254h-254z" />
<glyph unicode="&#xfe;" d="M0 0v2302h510v-512h512v-254h-510l-2 -1282l514 2v1534h254v-256h256v-1278h-254l-2 -256h-766l-2 -512h-510v512z" />
<glyph unicode="&#xff;" d="M0 256v1534h510v-1536l514 2v1534h510v-2302h-254l-2 -256h-1022v256h768v512h-768v256h-256zM0 -258h254v-254h-254v254zM256 2048v254h254v-254h-254zM1024 2048v254h254v-254h-254z" />
<glyph unicode="&#x152;" horiz-adv-x="2560" d="M0 256v1790l256 2v254h766v-254h-510l-2 -1794l514 2v2046h1278v-254h-766l-2 -770h512v-254h-510l-2 -770h768v-254h-2046v256h-256z" />
<glyph unicode="&#x153;" horiz-adv-x="2816" d="M0 256v1278l256 2v254h766v-254h-510l-2 -1282l514 2v1534h1022v-254h-510l-2 -514l514 2v766h254v-256h256v-766h-1022l-2 -514h768v-254h-2046v256h-256zM2304 256v254h254v-254h-254z" />
<glyph unicode="&#x178;" d="M0 1280v1022h510v-1024l514 2v1022h510v-1022h-254l-2 -256h-254l-2 -1024h-510v1024h-256v256h-256zM256 2560v254h254v-254h-254zM1024 2560v254h254v-254h-254z" />
<glyph unicode="&#x2c6;" horiz-adv-x="1280" d="M0 2048v256h256v254h510v-256h256v-254h-1022z" />
<glyph unicode="&#x2dc;" d="M0 2048v254h254v-254h-254zM256 2304v254h510v-254h-254h-256zM768 2048v254h510v-254h-510zM1280 2304v254h254v-254h-254z" />
<glyph unicode="&#x2000;" horiz-adv-x="1535" />
<glyph unicode="&#x2001;" horiz-adv-x="3070" />
<glyph unicode="&#x2002;" horiz-adv-x="1535" />
<glyph unicode="&#x2003;" horiz-adv-x="3070" />
<glyph unicode="&#x2004;" horiz-adv-x="1023" />
<glyph unicode="&#x2005;" horiz-adv-x="767" />
<glyph unicode="&#x2006;" horiz-adv-x="511" />
<glyph unicode="&#x2007;" horiz-adv-x="511" />
<glyph unicode="&#x2008;" horiz-adv-x="383" />
<glyph unicode="&#x2009;" horiz-adv-x="614" />
<glyph unicode="&#x200a;" horiz-adv-x="170" />
<glyph unicode="&#x2010;" horiz-adv-x="1536" d="M0 768v254h1278v-254h-510h-768z" />
<glyph unicode="&#x2011;" horiz-adv-x="1536" d="M0 768v254h1278v-254h-510h-768z" />
<glyph unicode="&#x2012;" horiz-adv-x="1536" d="M0 768v254h1278v-254h-510h-768z" />
<glyph unicode="&#x2013;" horiz-adv-x="1280" d="M0 768v254h1022v-254h-510h-512z" />
<glyph unicode="&#x2014;" horiz-adv-x="2304" d="M0 768v254h2046v-254h-510h-1536z" />
<glyph unicode="&#x2018;" horiz-adv-x="768" d="M0 1280v766h254v-256h256v-510h-510zM256 2048v254h254v-254h-254z" />
<glyph unicode="&#x2019;" horiz-adv-x="768" d="M0 1280v254h254v-254h-254zM0 1792v510h510v-766h-254v256h-256z" />
<glyph unicode="&#x201a;" horiz-adv-x="768" d="M0 0v510h510v-766h-254v256h-256zM0 -258h254v-254h-254v254z" />
<glyph unicode="&#x201c;" horiz-adv-x="1536" d="M0 1280v766h254v-256h256v-510h-254h-256zM256 2048v254h254v-254h-254zM768 1280v766h254v-256h256v-510h-510zM1024 2048v254h254v-254h-254z" />
<glyph unicode="&#x201d;" horiz-adv-x="1536" d="M0 1280v254h254v-254h-254zM0 1792v510h510v-766h-254v256h-256zM768 1280v254h254v-254h-254zM768 1792v510h510v-766h-254v256h-256z" />
<glyph unicode="&#x201e;" horiz-adv-x="1536" d="M0 0v510h510v-766h-254v256h-256zM0 -258h254v-254h-254v254zM768 0v510h510v-766h-254v256h-256zM768 -258h254v-254h-254v254z" />
<glyph unicode="&#x2022;" horiz-adv-x="1536" d="M0 768v766l256 2v254h766v-256h256v-766h-254l-2 -256h-766v256h-256z" />
<glyph unicode="&#x2026;" horiz-adv-x="2816" d="M0 0v510h510v-510h-510zM1024 0v510h510v-510h-510zM2048 0v510h510v-510h-510z" />
<glyph unicode="&#x202f;" horiz-adv-x="614" />
<glyph unicode="&#x2039;" horiz-adv-x="1280" d="M0 768v254h254v-254h-254zM256 512v254h254v-254h-254zM256 1024v254h254v-254h-254zM512 256v254h254v-254h-254zM512 1280v254h254v-254h-254zM768 0v254h254v-254h-254zM768 1536v254h254v-254h-254z" />
<glyph unicode="&#x203a;" horiz-adv-x="1280" d="M0 0v512h256v254l256 2v256h-256v256h-256v510h254v-256h256v-256h256v-256h256v-254h-254l-2 -256h-254l-2 -256h-254l-2 -256h-254z" />
<glyph unicode="&#x205f;" horiz-adv-x="767" />
<glyph unicode="&#x2122;" horiz-adv-x="2560" d="M0 2048v254h766v-254h-254l-2 -768h-254v768h-256zM1024 1280v1022h254v-256h256v-254h-254l-2 -512h-254zM1536 1536v256h256v254l256 2v254h254v-1022h-254v256h-512z" />
<glyph unicode="&#x25fc;" d="M0 0v1792h1792v-1792h-1792z" />
</font>
</defs>
</svg>
